<svg xmlns="http://www.w3.org/2000/svg" viewBox="0 0 32 32" width="32" height="32">
  <defs>
    <linearGradient id="gradient" x1="0%" y1="0%" x2="100%" y2="100%">
      <stop offset="0%" style="stop-color:#667eea;stop-opacity:1" />
      <stop offset="100%" style="stop-color:#764ba2;stop-opacity:1" />
    </linearGradient>
  </defs>
  
  <!-- Rabbit body -->
  <ellipse cx="16" cy="22" rx="8" ry="6" fill="url(#gradient)"/>
  
  <!-- Rabbit head -->
  <circle cx="16" cy="14" r="7" fill="url(#gradient)"/>
  
  <!-- Rabbit ears -->
  <ellipse cx="12" cy="8" rx="2" ry="6" fill="url(#gradient)" transform="rotate(-20 12 8)"/>
  <ellipse cx="20" cy="8" rx="2" ry="6" fill="url(#gradient)" transform="rotate(20 20 8)"/>
  
  <!-- Inner ears -->
  <ellipse cx="12" cy="8" rx="1" ry="4" fill="#f8f9fa" transform="rotate(-20 12 8)"/>
  <ellipse cx="20" cy="8" rx="1" ry="4" fill="#f8f9fa" transform="rotate(20 20 8)"/>
  
  <!-- Eyes -->
  <circle cx="13" cy="12" r="1.5" fill="white"/>
  <circle cx="19" cy="12" r="1.5" fill="white"/>
  <circle cx="13" cy="12" r="0.8" fill="#1a1a1a"/>
  <circle cx="19" cy="12" r="0.8" fill="#1a1a1a"/>
  
  <!-- Nose -->
  <ellipse cx="16" cy="16" rx="1" ry="0.5" fill="#ff6b9d"/>
  
  <!-- Mouth -->
  <path d="M 16 17 Q 14 18 12 17" stroke="#1a1a1a" stroke-width="0.5" fill="none"/>
  <path d="M 16 17 Q 18 18 20 17" stroke="#1a1a1a" stroke-width="0.5" fill="none"/>
</svg>
